<svg id="visual" viewBox="0 0 1500 600" width="1500" height="600" xmlns="http://www.w3.org/2000/svg" xmlns:xlink="http://www.w3.org/1999/xlink" version="1.1"><rect x="0" y="0" width="1500" height="600" fill="#334155"></rect><path d="M0 346L25 355.5C50 365 100 384 150 387.7C200 391.3 250 379.7 300 383.2C350 386.7 400 405.3 450 415C500 424.7 550 425.3 600 410.7C650 396 700 366 750 351.5C800 337 850 338 900 348.2C950 358.3 1000 377.7 1050 377.5C1100 377.3 1150 357.7 1200 352.8C1250 348 1300 358 1350 365.5C1400 373 1450 378 1475 380.5L1500 383L1500 601L1475 601C1450 601 1400 601 1350 601C1300 601 1250 601 1200 601C1150 601 1100 601 1050 601C1000 601 950 601 900 601C850 601 800 601 750 601C700 601 650 601 600 601C550 601 500 601 450 601C400 601 350 601 300 601C250 601 200 601 150 601C100 601 50 601 25 601L0 601Z" fill="#64748b"></path><path d="M0 398L25 395.5C50 393 100 388 150 396.2C200 404.3 250 425.7 300 426.5C350 427.3 400 407.7 450 403.2C500 398.7 550 409.3 600 413.3C650 417.3 700 414.7 750 419.7C800 424.7 850 437.3 900 442.3C950 447.3 1000 444.7 1050 434.2C1100 423.7 1150 405.3 1200 409.3C1250 413.3 1300 439.7 1350 444.2C1400 448.7 1450 431.3 1475 422.7L1500 414L1500 601L1475 601C1450 601 1400 601 1350 601C1300 601 1250 601 1200 601C1150 601 1100 601 1050 601C1000 601 950 601 900 601C850 601 800 601 750 601C700 601 650 601 600 601C550 601 500 601 450 601C400 601 350 601 300 601C250 601 200 601 150 601C100 601 50 601 25 601L0 601Z" fill="#8674a8"></path><path d="M0 453L25 462C50 471 100 489 150 491C200 493 250 479 300 468C350 457 400 449 450 444.7C500 440.3 550 439.7 600 438.2C650 436.7 700 434.3 750 445C800 455.7 850 479.3 900 486.3C950 493.3 1000 483.7 1050 484C1100 484.3 1150 494.7 1200 491.3C1250 488 1300 471 1350 467.7C1400 464.3 1450 474.7 1475 479.8L1500 485L1500 601L1475 601C1450 601 1400 601 1350 601C1300 601 1250 601 1200 601C1150 601 1100 601 1050 601C1000 601 950 601 900 601C850 601 800 601 750 601C700 601 650 601 600 601C550 601 500 601 450 601C400 601 350 601 300 601C250 601 200 601 150 601C100 601 50 601 25 601L0 601Z" fill="#c665a1"></path><path d="M0 478L25 483.5C50 489 100 500 150 504.2C200 508.3 250 505.7 300 501.5C350 497.3 400 491.7 450 494.3C500 497 550 508 600 515.3C650 522.7 700 526.3 750 519C800 511.7 850 493.3 900 490C950 486.7 1000 498.3 1050 506.3C1100 514.3 1150 518.7 1200 515.5C1250 512.3 1300 501.7 1350 496C1400 490.3 1450 489.7 1475 489.3L1500 489L1500 601L1475 601C1450 601 1400 601 1350 601C1300 601 1250 601 1200 601C1150 601 1100 601 1050 601C1000 601 950 601 900 601C850 601 800 601 750 601C700 601 650 601 600 601C550 601 500 601 450 601C400 601 350 601 300 601C250 601 200 601 150 601C100 601 50 601 25 601L0 601Z" fill="#f7586f"></path><path d="M0 527L25 527.2C50 527.3 100 527.7 150 533.3C200 539 250 550 300 554.8C350 559.7 400 558.3 450 555.7C500 553 550 549 600 544.8C650 540.7 700 536.3 750 538.8C800 541.3 850 550.7 900 556.3C950 562 1000 564 1050 562C1100 560 1150 554 1200 548.8C1250 543.7 1300 539.3 1350 539C1400 538.7 1450 542.3 1475 544.2L1500 546L1500 601L1475 601C1450 601 1400 601 1350 601C1300 601 1250 601 1200 601C1150 601 1100 601 1050 601C1000 601 950 601 900 601C850 601 800 601 750 601C700 601 650 601 600 601C550 601 500 601 450 601C400 601 350 601 300 601C250 601 200 601 150 601C100 601 50 601 25 601L0 601Z" fill="#f97316"></path></svg>